/* XPM */
static char *b1fbcf0c0d4e4606f07a3acfde7d5ea7oDHLzUSTyocKNAsG[] = {
/* columns rows colors chars-per-pixel */
"32 32 18 1 ",
"  c #B08D57",
". c #B69666",
"X c #BB9E74",
"o c #C0A57F",
"O c #C0A680",
"+ c #C6AE8C",
"@ c #CBB598",
"# c #CDB99D",
"$ c #D0BDA3",
"% c #D5C4AD",
"& c #DACBB8",
"* c #DFD2C1",
"= c #E4D9CB",
"- c #EDE6DD",
"; c #F2EDE6",
": c #F6F3EF",
"> c #FBF9F7",
", c white",
/* pixels */
"                                ",
"                                ",
"                                ",
"                                ",
"                                ",
"                                ",
"                                ",
"                                ",
"                                ",
"                                ",
"      $&=$ @*X                  ",
"      O:,& :,& O+X              ",
"       &,& @*X -,&              ",
"       &,&+&&+$:,-& X*-*X       ",
"       &,&X;,&O;,=+O>;O,>.      ",
"       &,& &,& -,& =,;&,,+      ",
"       &,& &,& -,& -,-+++.      ",
"       &,& &,& -,& *,:. $+      ",
"      +;,;#;,;+$,>-.;,>;;.      ",
"      X+++o+++X O@O  +%+        ",
"                                ",
"                                ",
"                                ",
"                                ",
"                                ",
"                                ",
"                                ",
"                                ",
"                                ",
"                                ",
"                                ",
"                                "
};
