/* XPM */
static char *e68b0a1fc8354dbad9407dca20ef45d34QVf3fR3tr9BwBLn[] = {
/* columns rows colors chars-per-pixel */
"64 64 17 1 ",
"  c #B08D57",
". c #B69666",
"X c #BB9E74",
"o c #C0A680",
"O c #C6AE8C",
"+ c #CBB598",
"@ c #D0BDA3",
"# c #D5C4AD",
"$ c #DACBB8",
"% c #DFD2C1",
"& c #E4D9CB",
"* c #E8E0D4",
"= c #EDE6DD",
"- c #F2EDE6",
"; c #F6F3EF",
": c #FBF9F7",
"> c white",
/* pixels */
"                                                                ",
"                                                                ",
"                                                                ",
"                                                                ",
"                                                                ",
"                                                                ",
"                                                                ",
"                                                                ",
"                                                                ",
"                                                                ",
"                                                                ",
"                                                                ",
"                                                                ",
"                                                                ",
"                                                                ",
"                                                                ",
"                                                                ",
"                                                                ",
"                                                                ",
"                            .                                   ",
"                          @;>*X                                 ",
"       X$$$$$$$$$O       .:>>>%                                 ",
"       o=>>>>>>:=@       X>>>>*                                 ",
"         .;>>>>.          *>>>O    >>>>O                        ",
"          =>>>=            +$X     >>>>O                        ",
"          =>>>=                    >>>>O                        ",
"          =>>>=         oOO$$$@ .OO>>>>#OOX    O&===$X          ",
"          =>>>=         =>>>>>= O>>>>>>>>>$  .*>>;&>>>$         ",
"          =>>>=          O:>>>= .OO>>>>#OOX .:>>*. *>>>@        ",
"          =>>>=           $>>>=    >>>>O    *>>>O  #>>>:        ",
"          =>>>=           $>>>=    >>>>O   X>>>>X  O>>>>X       ",
"          =>>>=           $>>>=    >>>>O   +>>>>==->>>>>O       ",
"          =>>>=           $>>>=    >>>>O   $>>>>$$$$$$$$X       ",
"          =>>>=       X>O $>>>=    >>>>O   #>>>>o               ",
"          =>>>=       &>o $>>>=    >>>>O   O>>>>@               ",
"          =>>>:      o>>  $>>>=    >>>>+   .:>>>=     o;O       ",
"          =>>>>.    .;>>  $>>>-    >>>>&.   #>>>>&.  +::o       ",
"       .#&>>>>>;$$$&:>>>.@:>>>>&X  *>>>>:-=  %>>>>:=:>:+        ",
"       o================o=======@  .=>>>>=+   O->>>>>&X         ",
"                                     .OX        .OOo            ",
"                                                                ",
"                                                                ",
"                                                                ",
"                                                                ",
"                                                                ",
"                                                                ",
"                                                                ",
"                                                                ",
"                                                                ",
"                                                                ",
"                                                                ",
"                                                                ",
"                                                                ",
"                                                                ",
"                                                                ",
"                                                                ",
"                                                                ",
"                                                                ",
"                                                                ",
"                                                                ",
"                                                                ",
"                                                                ",
"                                                                ",
"                                                                "
};
