/* XPM */
static char *_2765f5322df46b78bd81d4f11431037i15SGAQxE5r2XXdm[] = {
/* columns rows colors chars-per-pixel */
"128 128 17 1 ",
"  c #B08D57",
". c #B69666",
"X c #BB9E74",
"o c #C0A680",
"O c #C6AE8C",
"+ c #CBB598",
"@ c #D0BDA3",
"# c #D5C4AD",
"$ c #DACBB8",
"% c #DFD2C1",
"& c #E4D9CB",
"* c #E8E0D4",
"= c #EDE6DD",
"- c #F2EDE6",
"; c #F6F3EF",
": c #FBF9F7",
"> c white",
/* pixels */
"                                                                                                                                ",
"                                                                                                                                ",
"                                                                                                                                ",
"                                                                                                                                ",
"                                                                                                                                ",
"                                                                                                                                ",
"                                                                                                                                ",
"                                                                                                                                ",
"                                                                                                                                ",
"                                                                                                                                ",
"                                                                                                                                ",
"                                                                                                                                ",
"                                                                                                                                ",
"                                                                                                                                ",
"                                                                                                                                ",
"                                                                                                                                ",
"                                                                                                                                ",
"                                                                                                                                ",
"                                                                                                                                ",
"                                                                                                                                ",
"                                                                                                                                ",
"                                                                                                                                ",
"                                                                                                                                ",
"                                                                                                                                ",
"                                                                                                                                ",
"                                                                                                                                ",
"                                                                                                                                ",
"                                                                                                                                ",
"                                                                                                                                ",
"                                                                                                                                ",
"                                                                                                                                ",
"                                                                                                                                ",
"                                                                                                                                ",
"                                                                                                                                ",
"                                                                                                                                ",
"                                                                                                                                ",
"                                                                                                                                ",
"                                                                                                                                ",
"                                                                                                                                ",
"                                                                                                                                ",
"                                                                                                                                ",
"                                                                                                                                ",
"                                                                                                                                ",
"                                                                                                                                ",
"                                                                                                                                ",
"                                                                                                                                ",
"                                                                                                                                ",
"                                                                                                                                ",
"                                                                                                                                ",
"                                                                                                                                ",
"                                                                                                                                ",
"                                                                                                                                ",
"                                 o.                                                                                             ",
"                               .->:#                                                                                            ",
"              o========%       #>>>:                                                                                            ",
"              .$;>>>>:$O       @>>>;    OOOo                                                                                    ",
"                 >>>>@          *>;+    >>>=                                                                                    ",
"                 >>>>O                  >>>=                                                                                    ",
"                 >>>>O             X    >>>=        .OOO.        o  XOO          OOOX       XOOO..o     .OOOO                   ",
"                 >>>>O        ;>>>>> O>>>>>>>>>   +;>>>>:$  &>>>>>#->>>:@     o=>>>>>%.   o=>>>>>;:   o*>>:>>:%                 ",
"                 >>>>O        +*>>>> X$&>>>;$$$  &>>-Xo>>>& o*>>>>>=;>>>>@   @>>:O.;>>;  X:>>$ O=>>  X>>># #>>>#                ",
"                 >>>>O          >>>>   O>>>=    +>>>+  =>>>o  ;>>>+  &>>>:. X:>>$  %>>># $>>>O   ->  $>>>$ .>>>=                ",
"                 >>>>O          >>>>   O>>>=    ;>>>.  =>>>$  =>>>O  .>>>>@ &>>>O  $>>>= $>>>:#X o=  X:>>+  >>>:                ",
"                 >>>>O          >>>>   O>>>=    >>>>===:>>>$  =>>>O   =>>>$ ->>>-==;>>>= @>>>>>>-@     o.X#->>>>                ",
"                 >>>>O          >>>>   O>>>=   O>>>>$$$$$$$O  =>>>O   =>>>= >>>>&$$$$$$@ .->>>>>>>=   .$->:%>>>>                ",
"                 >>>>O      @>  >>>>   O>>>=   X>>>>X         =>>>O   =>>>% ;>>>+         .&>>>>>>>X o:>>-. >>>>                ",
"                 >>>>O      ;>  >>>>   O>>>-    >>>>@     ..  =>>>O   =>>># =>>>%      . >@ .+&>>>>$ ->>>O  >>>=                ",
"                 >>>>@     $>=  >>>>   o>>>>    %>>>-    .-=  =>>>O  .>>>:X @>>>:.    &:.>;.   O>>>$ >>>>o  >>>=                ",
"                o>>>>*.  .@>>= .>>>>o   >>>>*OO .:>>>=+O#;>O  =>>>% .*>>>#   =>>>;@O@=>$ =>-.  o>>>O =>>>=#->>>>X               ",
"              o->>>>>>>>>>>>>=@;>>>>>%  %>>>>>>  X=>>>>>>:O   =>>>>-:>>>$    .%>>>>>>>#  =:>:&%;>>@  +>>>>>=*>>>>=              ",
"              .OOOOOOOOOOOOOOoXOOOOOOo   @%*$#.    +%==%@     =>>>@$&*$X       o$==&#.   @Oo$&=*#X    X%=&+ .#&*$o              ",
"                                                              =>>>O                                                             ",
"                                                              =>>>O                                                             ",
"                                                             .:>>>#                                                             ",
"                                                            %:>>>>>;@                                                           ",
"                                                            oOOOOOOOX                                                           ",
"                                                                                                                                ",
"                                                                                                                                ",
"                                                                                                                                ",
"                                                                                                                                ",
"                                                                                                                                ",
"                                                                                                                                ",
"                                                                                                                                ",
"                                                                                                                                ",
"                                                                                                                                ",
"                                                                                                                                ",
"                                                                                                                                ",
"                                                                                                                                ",
"                                                                                                                                ",
"                                                                                                                                ",
"                                                                                                                                ",
"                                                                                                                                ",
"                                                                                                                                ",
"                                                                                                                                ",
"                                                                                                                                ",
"                                                                                                                                ",
"                                                                                                                                ",
"                                                                                                                                ",
"                                                                                                                                ",
"                                                                                                                                ",
"                                                                                                                                ",
"                                                                                                                                ",
"                                                                                                                                ",
"                                                                                                                                ",
"                                                                                                                                ",
"                                                                                                                                ",
"                                                                                                                                ",
"                                                                                                                                ",
"                                                                                                                                ",
"                                                                                                                                ",
"                                                                                                                                ",
"                                                                                                                                ",
"                                                                                                                                ",
"                                                                                                                                ",
"                                                                                                                                ",
"                                                                                                                                ",
"                                                                                                                                ",
"                                                                                                                                ",
"                                                                                                                                ",
"                                                                                                                                ",
"                                                                                                                                ",
"                                                                                                                                ",
"                                                                                                                                ",
"                                                                                                                                ",
"                                                                                                                                ",
"                                                                                                                                ",
"                                                                                                                                ",
"                                                                                                                                "
};
